PathFileType	4	(X/Y/Z)	C:/Users/opensim2020/Desktop/walking_exp_matlab/subject03_walking13_straight_04.trc																																																																																																																																								
DataRate	CameraRate	NumFrames	NumMarkers	Units	OrigDataRate	OrigDataStartFrame	OrigNumFrames																																																																																																																																				
100	100	5	46	mm	100	2337	200																																																																																																																																				
Frame#	Time	LFHD			RFHD			LBHD			RBHD			C7			T10			CLAV			STRN			RBAK			LSHO			LUPA			LELB			LFRM			LWRA			LWRB			LFIN			RSHO			RUPA			RELB			RFRM			RWRA			RWRB			RFIN			LASI			RASI			LPSI			RPSI			LTHI			LKNE			LTIB			LANK			LHEE			LTOE			RTHI			RKNE			RTIB			RANK			RHEE			RTOE			*39			*40			*41			*42			*43			*44			*45		
		X1	Y1	Z1	X2	Y2	Z2	X3	Y3	Z3	X4	Y4	Z4	X5	Y5	Z5	X6	Y6	Z6	X7	Y7	Z7	X8	Y8	Z8	X9	Y9	Z9	X10	Y10	Z10	X11	Y11	Z11	X12	Y12	Z12	X13	Y13	Z13	X14	Y14	Z14	X15	Y15	Z15	X16	Y16	Z16	X17	Y17	Z17	X18	Y18	Z18	X19	Y19	Z19	X20	Y20	Z20	X21	Y21	Z21	X22	Y22	Z22	X23	Y23	Z23	X24	Y24	Z24	X25	Y25	Z25	X26	Y26	Z26	X27	Y27	Z27	X28	Y28	Z28	X29	Y29	Z29	X30	Y30	Z30	X31	Y31	Z31	X32	Y32	Z32	X33	Y33	Z33	X34	Y34	Z34	X35	Y35	Z35	X36	Y36	Z36	X37	Y37	Z37	X38	Y38	Z38	X39	Y39	Z39	X40	Y40	Z40	X41	Y41	Z41	X42	Y42	Z42	X43	Y43	Z43	X44	Y44	Z44	X45	Y45	Z45	X46	Y46	Z46
																																																																																																																																											
176	1.75	771.78357	1595.02368	-1488.18652	751.45813	1594.67883	-1356.49646	640.16583	1570.70618	-1505.53162	624.27142	1568.77429	-1375.63428	584.74475	1397.98621	-1453.65137	572.75635	1078.14722	-1458.99622	706.83264	1325.13806	-1447.52454	763.36646	1165.76135	-1449.53198	535.62195	1212.75244	-1360.97534	666.27191	1360.65955	-1606.75305	633.41571	1164.27417	-1679.92273	618.09326	1041.72607	-1694.0658	607.70367	911.39148	-1701.04834	582.43964	790.5733	-1677.8833	570.49963	805.91888	-1731.75574	528.30365	726.88898	-1720.33276	650.7525	1345.30664	-1290.81152	708.33264	1134.42822	-1216.00842	765.42383	1038.06909	-1207.63293	852.2074	935.30328	-1222.48364	922.24817	875.64099	-1274.99792	909.46478	854.04865	-1227.01758	968.93457	816.04712	-1246.67346	760.77911	930.83051	-1564.2124	734.48676	920.94958	-1326.48462	592.51154	939.72076	-1534.82727	578.29761	947.46552	-1385.57605	782.53131	637.40594	-1625.79749	839.97101	473.87576	-1587.03308	844.81189	276.91116	-1600.30359	891.51941	70.15805	-1577.13428	854.35394	32.68976	-1542.41125	1042.1084	43.00648	-1535.37268	640.94928	631.39624	-1293.10706	620.08118	451.56717	-1326.02625	493.07556	300.2229	-1324.34619	362.89819	127.29305	-1371.35864	308.81564	119.30811	-1421.10461	474.08688	35.73214	-1393.93481	690.97784	1664.11841	-1445.28381	NaN	NaN	NaN	NaN	NaN	NaN	NaN	NaN	NaN	NaN	NaN	NaN	NaN	NaN	NaN	NaN	NaN	NaN
177	1.76	783.33435	1595.96362	-1488.55811	762.41858	1595.43201	-1356.87354	651.87061	1571.21436	-1506.50146	635.51862	1569.11584	-1376.625	596.66736	1398.26782	-1455.09534	585.70624	1078.29541	-1459.60291	718.94812	1325.78296	-1448.38013	776.0343	1166.60913	-1450.07373	547.65955	1212.55505	-1362.81421	678.8645	1361.00049	-1607.78076	646.84204	1164.50598	-1681.08704	630.43451	1041.8855	-1695.01563	620.41486	911.80151	-1702.58911	594.56439	790.97369	-1679.73181	583.02264	806.42578	-1733.7124	540.07465	727.80286	-1722.59705	662.15955	1345.50232	-1291.6803	718.55017	1134.19495	-1217.34961	775.22314	1037.51013	-1208.97009	862.17615	935.06842	-1223.96973	932.89227	876.50916	-1276.22437	919.36188	853.83966	-1228.81409	979.98511	817.11542	-1248.27246	774.25922	932.57776	-1564.92969	747.7655	920.25409	-1327.93237	606.06635	940.91687	-1535.9502	591.76672	947.22974	-1386.43811	797.83429	640.76508	-1626.01978	853.32916	476.76126	-1587.85278	856.5799	278.65686	-1601.88794	894.66595	70.46709	-1576.57593	855.78882	33.86646	-1542.58716	1045.83972	40.68217	-1538.13123	655.95343	630.26758	-1293.85376	636.70709	450.263	-1324.89001	504.67856	302.92892	-1324.47144	369.57678	134.47504	-1371.71362	316.3024	129.1852	-1422.32129	475.05673	35.69454	-1394.23059	701.78418	1664.64429	-1445.73364	NaN	NaN	NaN	NaN	NaN	NaN	NaN	NaN	NaN	NaN	NaN	NaN	NaN	NaN	NaN	NaN	NaN	NaN
178	1.77	794.85895	1597.17371	-1488.92969	773.5069	1596.59033	-1357.39514	663.63934	1571.99988	-1507.43091	646.5929	1569.88843	-1377.77075	608.30688	1399.14954	-1456.7417	598.07178	1079.21533	-1460.56958	730.88855	1326.78674	-1449.12988	788.59253	1167.86365	-1450.67664	559.55164	1212.82288	-1364.45276	691.43756	1361.71411	-1608.71399	660.50696	1164.97156	-1682.14563	644.21204	1042.56982	-1696.17053	633.80396	912.46765	-1704.03259	607.87531	791.72809	-1681.45532	596.54895	807.13287	-1735.41663	553.40027	728.57556	-1724.91833	673.17487	1346.1637	-1292.47729	728.65259	1134.2229	-1218.77075	784.91925	1037.26904	-1210.4856	871.72754	934.71362	-1225.49524	942.62006	876.63269	-1277.53003	928.74384	853.40533	-1230.53345	989.78418	817.71844	-1249.76843	787.61108	934.62451	-1565.84961	761.27759	919.9472	-1329.073	619.10156	942.84393	-1536.95862	605.11774	947.08643	-1387.17078	811.36353	643.75146	-1626.88843	868.01764	480.00583	-1588.1073	867.13464	280.12033	-1603.10217	895.302	70.76466	-1575.1261	856.33069	34.26453	-1542.01038	1047.14465	39.5963	-1537.77795	671.65973	629.22681	-1294.2688	654.59546	448.96198	-1323.33154	517.57959	306.11191	-1324.10693	377.98218	142.15941	-1372.14014	325.66071	140.21457	-1423.86536	476.41019	35.84089	-1394.29382	715.18518	1669.73755	-1448.5022	NaN	NaN	NaN	NaN	NaN	NaN	NaN	NaN	NaN	NaN	NaN	NaN	NaN	NaN	NaN	NaN	NaN	NaN
179	1.78	806.30951	1598.4425	-1489.2738	784.53223	1597.80725	-1357.83691	675.177	1573.11255	-1508.38782	657.77588	1570.77344	-1378.75977	620.27429	1400.0675	-1457.96399	610.72345	1079.76001	-1461.06873	742.71893	1327.99365	-1449.78528	800.91071	1169.22034	-1451.17627	571.50226	1213.40186	-1366.0293	703.79962	1362.74695	-1609.52356	674.17279	1165.78577	-1683.07104	657.95404	1043.49805	-1697.24939	647.83801	913.42694	-1705.26428	621.76862	792.52875	-1683.03833	611.01508	808.0166	-1737.07947	568.34027	729.24219	-1727.26941	684.28735	1347.25586	-1293.31958	738.7077	1134.60559	-1220.2677	794.4281	1037.30896	-1212.13562	880.77863	934.34631	-1226.95581	951.81421	876.4931	-1278.75085	937.41931	852.83142	-1232.12537	998.70844	817.78302	-1251.06592	800.5946	936.77545	-1566.6427	774.3302	920.23444	-1330.56616	632.42291	944.64148	-1537.46411	618.14282	947.31409	-1387.71423	823.65112	646.09326	-1628.66785	882.78003	482.33722	-1588.1283	876.31958	281.61429	-1603.85791	895.78979	71.45815	-1574.89343	856.52881	34.52421	-1542.36169	1047.60461	38.62577	-1535.08264	688.08472	628.27551	-1294.62732	673.94513	447.96756	-1321.54163	532.2323	309.78058	-1323.86365	387.94299	150.74472	-1373.05798	337.75436	151.85112	-1425.87549	477.54642	36.07656	-1394.40759	726.24011	1671.17627	-1448.75671	NaN	NaN	NaN	NaN	NaN	NaN	NaN	NaN	NaN	NaN	NaN	NaN	NaN	NaN	NaN	NaN	NaN	NaN
180	1.79	817.70013	1599.64929	-1489.6189	795.38715	1598.97241	-1358.27014	686.68695	1574.22009	-1509.28259	668.72321	1571.97937	-1379.80823	632.08282	1401.02136	-1458.94971	622.87158	1080.75964	-1461.70837	754.71625	1329.26917	-1450.42407	813.24524	1170.58118	-1451.59924	583.12335	1214.38159	-1367.24438	716.09442	1364.02429	-1610.25525	687.89325	1166.96692	-1683.94214	672.19678	1044.82129	-1698.61438	662.49976	914.56738	-1706.34021	636.9071	793.73975	-1684.39783	626.46075	809.14655	-1738.54944	584.7998	729.79364	-1729.52869	695.50214	1348.50549	-1294.12634	748.87939	1135.2677	-1221.79529	803.72418	1037.57593	-1213.83936	889.03735	933.7995	-1228.2959	960.31348	876.00311	-1279.92578	945.46906	852.03186	-1233.61279	1006.95502	817.39856	-1252.09119	813.39569	939.15802	-1567.32556	787.16425	920.86261	-1332.17773	645.05511	946.6405	-1537.74976	630.85089	947.7099	-1388.01245	835.59766	647.6051	-1630.04443	895.95905	483.34604	-1588.46631	883.99573	282.71497	-1604.45752	896.46918	71.59296	-1574.39685	856.66309	34.74342	-1542.47266	1048.37134	38.00969	-1535.58801	704.75275	627.30066	-1294.70044	694.83301	446.99231	-1320.10327	548.89417	313.68042	-1323.60449	400.86377	159.20726	-1373.78345	352.34988	163.52701	-1427.71753	479.50134	36.75932	-1394.89746	NaN	NaN	NaN	NaN	NaN	NaN	NaN	NaN	NaN	NaN	NaN	NaN	NaN	NaN	NaN	NaN	NaN	NaN	NaN	NaN	NaN
